<?xml version="1.0" encoding="utf-8"?>
<!-- Generator: Adobe Illustrator 13.0.2, SVG Export Plug-In . SVG Version: 6.00 Build 14948)  -->
<!DOCTYPE svg PUBLIC "-//W3C//DTD SVG 1.0//EN" "http://www.w3.org/TR/2001/REC-SVG-20010904/DTD/svg10.dtd">
<svg version="1.0" id="Ebene_1" xmlns="http://www.w3.org/2000/svg" xmlns:xlink="http://www.w3.org/1999/xlink" x="0px" y="0px"
	 width="518.125px" height="518.123px" viewBox="0 0 518.125 518.123" enable-background="new 0 0 518.125 518.123"
	 xml:space="preserve">
<path fill-rule="evenodd" clip-rule="evenodd" d="M246.601,85.743L432.385,300.98h75.48c1.737-10.38,2.874-20.959,3.319-31.723
	h-10.831L246.601,85.743L246.601,85.743z"/>
<path fill-rule="evenodd" clip-rule="evenodd" fill="#E2001A" d="M510.406,236.804L237.541,78.946l228.826,54.375
	c0,0,27.1,27.111,39.847,74.629C508.153,217.384,509.55,227.016,510.406,236.804L510.406,236.804z"/>
<path fill-rule="evenodd" clip-rule="evenodd" d="M142.384,239.804L22.537,171.004c-5.852,15.712-10.188,32.164-12.823,49.173
	l171.186,40.018L142.384,239.804L142.384,239.804z"/>
<path fill-rule="evenodd" clip-rule="evenodd" fill="#E2001A" d="M7.14,244.8l173.76,15.396L9.519,296.278
	c-1.811-12.149-2.791-24.563-2.791-37.216C6.728,254.273,6.876,249.523,7.14,244.8L7.14,244.8z"/>
<path fill-rule="evenodd" clip-rule="evenodd" d="M141.226,462.212l-17.676-10.069l16.068-28.189l17.426,9.926l-2.941,5.168
	l-11.455-6.527l-3.368,5.912l10.926,6.231l-2.946,5.159l-10.928-6.223l-3.864,6.776l11.703,6.671L141.226,462.212L141.226,462.212z
	 M384.453,462.104l-6.753,3.021l-4.69-4.937l-11.256,5.036l0.735,6.703l-6.645,2.974l-3.1-34.157l7.274-3.249L384.453,462.104
	L384.453,462.104z M359.644,446.152l1.459,13.169l7.749-3.475L359.644,446.152L359.644,446.152z M348.18,449.19l-11.49,3.902
	l2.323,6.844l11.49-3.899l1.907,5.631l-11.481,3.905l4.28,12.609l-6.51,2.209l-10.436-30.724l18-6.114L348.18,449.19L348.18,449.19z
	 M325.006,484.326l-5.687,1.063l-18.814-17.631l3.826,20.44l-6.762,1.26l-5.965-31.893l6.202-1.163l18.12,16.799l-3.65-19.497
	l6.762-1.269L325.006,484.326L325.006,484.326z M294.781,489.91l-7.389,0.457l-2.663-6.264l-12.308,0.771l-1.655,6.539l-7.27,0.448
	l9.08-33.073l7.951-0.501L294.781,489.91L294.781,489.91z M277.138,466.27l-3.252,12.835l8.476-0.524L277.138,466.27L277.138,466.27
	z M262.018,458.972l-6.873-0.111l-0.533,32.44l6.876,0.117L262.018,458.972L262.018,458.972z M254.109,465.139l-9.952-0.896
	l-2.392,26.391l-6.845-0.624l2.392-26.391l-9.867-0.896c0.174,1.219,0.135,2.452-0.088,3.592c-0.876,4.482-4.575,9.091-10.808,7.878
	l-5.355-1.046l-2.496,12.797l-6.749-1.315l5.963-30.586l-14.44,12.524l-4.403,14.522l-6.577-1.992l4.4-14.531l-5.399-19.679
	l7.97,2.42l2.776,11.481l8.719-8.001l7.167,2.171l0.034-0.179l12.067,2.35c4.422,0.864,6.593,3.984,7.167,7.277l0.51-5.607
	l26.741,2.42L254.109,465.139L254.109,465.139z M212.331,467.31l3.136,0.612c3.094,0.604,4.46-0.486,4.925-2.871
	c0.527-2.707-0.59-3.94-4.241-4.655l-2.383-0.469L212.331,467.31L212.331,467.31z M178.579,453.649
	c-2.433-3.24-5.152-5.505-8.268-6.855c-6.861-2.982-11.433,0.946-13.346,5.353c-2.291,5.288-0.28,10.307,4.951,12.574
	c1.556,0.677,2.411,0.844,4.645,0.779l1.516-3.495l-3.674-1.591l2.366-5.458l9.979,4.33l-5.281,12.179
	c-2.899,1.488-8.31,1.16-12.39-0.612c-8.83-3.829-12.352-12.876-8.49-21.782c3.94-9.076,12.88-12.612,21.895-8.701
	c3.782,1.644,7.021,4.239,8.921,6.776L178.579,453.649L178.579,453.649z"/>
<path fill-rule="evenodd" clip-rule="evenodd" fill="#009036" d="M111.062,362.788H71.978v-28.251h7.437v21.243h24.212v-6.583
	H88.547v-21.671h22.515v7.011H95.982v7.225h15.079V362.788L111.062,362.788z M417.324,406.332c-27.24,0-54.486,0-81.727,0v21.451
	h-22.726v-7.433h15.293v-35.048h7.433v13.594h50.73v-6.375h-35.042v-21.662h35.042v7.436h-28.031v6.797h35.467v13.805
	c5.373,0,10.752,0,16.125,0v-33.773h7.436V406.332L417.324,406.332z M305.837,406.332h-22.515v-21.029h15.082
	c0.146-1.611,0.146-3.311,0-5.098h7.433V406.332L305.837,406.332z M295.642,375.532h-5.736v-5.947h5.736V375.532L295.642,375.532z
	 M298.405,398.896v-6.158h-7.646v6.158H298.405L298.405,398.896z M305.837,375.532h-5.947v-5.947h5.947V375.532L305.837,375.532z
	 M255.045,406.332h-7.009v-41.209h7.009V406.332L255.045,406.332z M238.831,406.332c-27.166,0-54.334,0-81.498,0v-7.436h13.38
	v-6.146c-1.417-0.246-2.834-0.246-4.248,0v-7.447h11.682v13.594c4.834,0,9.671,0,14.506,0v-13.38h22.515v13.38
	c5.41,0,10.819,0,16.229,0v-33.773h7.434V406.332L238.831,406.332z M201.362,378.716h-5.947v-5.947h5.947V378.716L201.362,378.716z
	 M207.734,392.949h-7.646v5.947h7.646V392.949L207.734,392.949z M211.345,378.716h-5.946v-5.947h5.946V378.716L211.345,378.716z
	 M148.796,403.144c0,3.557-1.216,6.571-3.637,9.047c-2.423,2.461-5.443,3.697-9.06,3.697c-6,0-10.066-3.185-12.204-9.557h-2.713
	v28.459h-7.431v-35.895h10.293c2.448-5.66,6.407-8.496,11.884-8.496c3.836,0,6.943,1.175,9.312,3.524
	C147.611,396.268,148.796,399.341,148.796,403.144L148.796,403.144z M140.086,402.708c0-1.102-0.409-2.054-1.23-2.836
	c-0.822-0.797-1.805-1.187-2.952-1.187c-2.877,0-4.313,1.418-4.313,4.26c0,2.684,1.395,4.022,4.185,4.022
	C138.65,406.967,140.086,405.546,140.086,402.708L140.086,402.708z M454.765,351.957h-7.011v-41.209h7.011V351.957L454.765,351.957z
	 M438.775,351.957H406.49v-7.011h9.349v-33.771h7.005v33.771h8.496v-33.771h7.436V351.957L438.775,351.957z M401.14,351.957
	c-24.275,0-48.554,0-72.832,0v-41.42h7.433v33.984c10.541,0,21.085,0,31.626,0v-5.733h-16.992v-7.436h24.425v13.808h19.33v-13.808
	h7.011V351.957L401.14,351.957z M384.784,324.341h-5.733v-5.736h5.733V324.341L384.784,324.341z M394.765,324.341h-5.52v-5.736h5.52
	V324.341L394.765,324.341z M321.139,351.957h-20.394v-7.436h13.594v-5.944c-1.406-0.167-2.892-0.167-4.462,0v-7.436h11.262V351.957
	L321.139,351.957z M271.622,351.957h-7.011v-41.209h7.011V351.957L271.622,351.957z M256.399,351.957h-17.591
	c-0.895,1.702-1.753,3.378-2.566,5.013c-2.281,3.167-5.457,4.755-9.527,4.755c-4.074,0-7.167-1.544-9.284-4.638
	c-0.817-1.711-1.671-3.428-2.565-5.13c-25.066,0-50.133,0-75.196,0v21.451h-22.726v-7.433h15.292v-35.048h7.434v13.594h15.048
	V325.83h7.434v4.887h38.169v13.805c4.853,0,9.709,0,14.562,0c0.977-0.647,1.956-1.77,2.934-3.366
	c0.979-1.585,1.917-2.707,2.817-3.357c1.386-0.902,3.423-1.348,6.119-1.348c2.854,0,5.017,0.472,6.485,1.427
	c0.894,0.63,1.834,1.737,2.813,3.316c0.981,1.588,1.919,2.698,2.815,3.328h10.523v-33.346h7.011V351.957L256.399,351.957z
	 M230.911,348.573c0-2.637-1.458-3.958-4.371-3.958c-2.752,0-4.126,1.359-4.126,4.084c0,1.233,0.401,2.262,1.211,3.085
	c0.809,0.817,1.824,1.233,3.037,1.233c1.132,0,2.125-0.46,2.972-1.362C230.486,350.755,230.911,349.727,230.911,348.573
	L230.911,348.573z M192.886,338.146h-30.735v6.375c10.244,0,20.49,0,30.735,0V338.146L192.886,338.146z M90.458,372.558h-5.947
	v-5.522h5.947V372.558L90.458,372.558z M100.441,372.558h-5.946v-5.522h5.946V372.558L100.441,372.558z"/>
<polygon points="208.332,267.784 198.183,268.296 198.031,268.305 197.877,268.296 187.649,267.784 187.56,267.781 187.332,267.746 
	177.394,266.287 177.234,266.263 177.078,266.222 167.503,263.796 167.372,263.761 167.186,263.694 157.992,260.335 
	157.724,260.232 148.885,256.115 148.808,256.08 148.592,255.949 140.358,251 140.205,250.906 140.106,250.833 132.422,245.203 
	132.193,245.038 132.167,245.013 125.017,238.597 124.828,238.393 118.288,231.441 118.169,231.313 118.071,231.186 112.31,223.614 
	112.232,223.512 112.144,223.373 107.073,215.313 106.95,215.115 106.896,215.008 102.674,206.389 102.637,206.313 102.56,206.109 
	99.201,197.194 99.138,197.03 99.098,196.876 96.614,187.481 96.587,187.38 96.551,187.15 95.039,177.45 94.989,177.12 
	94.988,177.119 94.458,167.063 94.449,166.896 94.458,166.731 94.988,156.828 95.039,156.497 96.551,146.75 96.587,146.522 
	96.614,146.42 99.098,137.076 99.127,136.972 99.201,136.771 102.56,127.805 102.637,127.597 102.686,127.499 106.907,118.931 
	106.988,118.771 107.061,118.652 112.132,110.521 112.208,110.399 112.31,110.266 118.071,102.735 118.167,102.612 118.274,102.494 
	124.815,95.495 124.89,95.416 125.043,95.278 132.192,88.938 132.318,88.83 132.409,88.761 140.093,83.08 140.225,82.982 
	140.358,82.9 148.592,77.949 148.745,77.859 148.874,77.796 157.712,73.633 157.912,73.541 158.005,73.506 167.199,70.197 
	167.338,70.147 167.492,70.106 177.063,67.657 177.215,67.619 177.381,67.592 187.318,66.101 187.534,66.07 187.636,66.063 
	197.865,65.505 198.038,65.496 198.208,65.505 208.356,66.063 208.419,66.067 208.648,66.101 218.607,67.592 218.805,67.623 
	218.937,67.657 228.508,70.106 228.662,70.147 228.8,70.197 238.002,73.506 238.163,73.564 238.308,73.633 247.015,77.796 
	247.077,77.826 247.282,77.949 255.593,82.9 255.724,82.979 255.86,83.08 263.54,88.761 263.755,88.938 270.93,95.278 
	271.097,95.426 271.17,95.506 277.639,102.507 277.73,102.605 277.833,102.735 283.604,110.266 283.707,110.399 283.783,110.521 
	288.848,118.652 288.945,118.811 289,118.919 293.298,127.487 293.366,127.625 293.436,127.816 296.726,136.783 296.814,137.049 
	299.354,146.394 299.372,146.459 299.416,146.738 300.98,156.485 301.03,156.795 301.033,156.828 301.537,166.731 301.542,166.89 
	301.537,167.051 301.033,177.105 301.03,177.16 300.98,177.461 299.416,187.163 299.377,187.412 299.354,187.496 296.814,196.89 
	296.776,197.027 296.726,197.169 293.436,206.084 293.363,206.278 293.298,206.414 289,215.033 288.959,215.118 288.836,215.313 
	283.771,223.373 283.683,223.512 283.604,223.614 277.833,231.186 277.739,231.306 277.627,231.428 271.159,238.38 270.962,238.588 
	270.954,238.597 263.782,245.013 263.754,245.038 263.527,245.203 255.847,250.833 255.655,250.975 255.593,251.011 
	247.282,255.962 247.225,255.996 247.002,256.102 238.295,260.219 238.173,260.278 238.015,260.335 228.814,263.694 
	228.628,263.761 228.497,263.796 218.925,266.222 218.767,266.263 218.607,266.287 208.648,267.746 208.421,267.778 
	208.332,267.784 "/>
<path fill-rule="evenodd" clip-rule="evenodd" fill="#FFFFFF" d="M167.691,73.362l-3.845,22.529l-34.124,21.954l-15.333-4.998
	l2.728-3.716l3.18-3.844l3.34-3.737l2.979-2.979l3.637-3.539l3.838-3.354l6.444-4.901l4.772-3.211l4.374-2.594l5.908-2.881
	l6.699-2.832L167.691,73.362L167.691,73.362z M173.75,209.792l39.236,1.188l17.37,23.692l-14.013,24.779l-43.582-2.224
	l-18.99-26.517L173.75,209.792L173.75,209.792z M216.343,206.988l11.216-27.639l32.405-11.817l14.54,21.394L264.415,216
	l-30.168,14.711L216.343,206.988L216.343,206.988z M278.963,191.253l-9.501,25.89l-0.152,0.753l7.954,8.7l1.664-1.973l1.547-2.101
	l1.893-2.877l2.994-4.629l2.66-4.794l2.481-5.534l1.916-5l1.743-5.153l1.102-3.734l0.75-3.388l-12.059,2.7L278.963,191.253
	L278.963,191.253z M116.316,217.143l-1.926,3.794l-4.752-8.063l-2.124-4.805l-2.442-4.8l-1.567-4.417l-1.441-3.763l-1.239-4.471
	l-0.932-4.547l-0.491-3.354l8.498,1.739l7.912,30.46L116.316,217.143L116.316,217.143z M160.417,172.762l-28.463-12.001
	l-19.554,22.529l7.772,32.71l29.685,11.322l19.22-20.612L160.417,172.762L160.417,172.762z M202.417,145.528l4.395-28.746
	l34.714-10.151l25.11,23.672l-8.396,31.598l-29.802,10.834l-26.02-23.792V145.528L202.417,145.528z M244.299,102.057l25.808,25.664
	l18.018-3.737l-1.245-2.303l-2.115-3.661l-5.25-7.951l-3.999-5.333l-5.408-5.934l-5.792-5.514l-4.882-3.836l-8.893-6.012
	l-7.195-4.118L244.299,102.057L244.299,102.057z M133.614,153.967l-0.587-32.714l33.576-21.445l34.103,16.975l-5.032,30.438
	l-32.432,19.729l-17.276-7.903L133.614,153.967L133.614,153.967z"/>
<path d="M518.125,259.062c0,71.537-28.998,136.304-75.876,183.185c-46.881,46.881-111.647,75.876-183.186,75.876
	s-136.307-28.995-183.188-75.876C28.998,395.366,0,330.599,0,259.062c0-71.539,28.998-136.305,75.876-183.185
	C122.757,28.997,187.525,0,259.063,0S395.369,28.997,442.25,75.877S518.125,187.523,518.125,259.062L518.125,259.062z
	 M300.88,155.862l80.728,141.719h120.056c1.975-12.551,3.003-25.412,3.003-38.52c0-67.822-27.489-129.226-71.933-173.669
	c-6.586-6.586-13.541-12.791-20.836-18.598L246.894,77.739l-8.585-4.106l-0.145-0.069l-0.161-0.059l-4.702-1.692l170.366-11.298
	c-17.514-12.778-36.782-23.294-57.381-31.119L224.666,69.123l-5.729-1.466l-0.132-0.034l-0.198-0.031l-7.715-1.154l124.901-40.752
	c-15.586-5.121-31.86-8.726-48.65-10.636l-79.17,50.991l-9.765-0.536l-0.17-0.009l-0.173,0.009l-1.733,0.095l80.033-51.549
	c-5.648-0.39-11.353-0.593-17.102-0.593c-9.145,0-18.17,0.505-27.054,1.481L181.45,66.981l-4.069,0.611l-0.166,0.026l-0.152,0.038
	l-7.611,1.948l51.718-53.237c-14.07,2.18-27.743,5.55-40.917,10.011L160.43,72.634l-2.424,0.872l-0.094,0.035l-0.199,0.092
	l-6.376,3.003L171.53,29.52c-8.177,3.119-16.141,6.662-23.871,10.603l-7.28,42.766l-0.021,0.012l-0.133,0.082l-0.132,0.098
	l-7.582,5.604l7.582-44.534c-5.736,3.182-11.332,6.589-16.772,10.204l1.124,41.536l-6.17,6.604l-0.107,0.119l-0.097,0.123
	l-0.236,0.309l-1.192-44.096c-5.42,3.863-10.676,7.941-15.754,12.221l5.539,48.737l-3.741,7.592l-0.048,0.098l-0.078,0.208
	l-1.583,4.226l-6.302-55.443c-3.168,2.856-6.267,5.789-9.283,8.805c-2.039,2.039-4.04,4.118-6.006,6.227l18.606,49.616l-1.378,5.184
	l-0.026,0.103l-0.037,0.227l-1.088,7.027L74.275,97.279c-6,6.848-11.624,14.029-16.843,21.516l37.138,50.407l0.417,7.917
	l0.001,0.001l0.05,0.33l0.757,4.847l-42.393-57.535c-5.174,7.906-9.905,16.129-14.156,24.631l63.171,56.342l0.141,0.374l0.078,0.204
	l0.037,0.076l4.222,8.619l0.054,0.107l0.123,0.198l5.071,8.06l0.088,0.139l0.078,0.103l0.092,0.122l-76.22-67.979
	C21.599,187.16,13.458,222.16,13.458,259.062c0,13.107,1.031,25.969,3.01,38.52h127.926l55.02-29.347l8.918-0.451l0.089-0.006
	l0.227-0.032l8.366-1.225l-58.235,31.061h37.277l26.518-32.285l5.922-1.5l0.132-0.035l0.186-0.067l5.484-2.001l-29.48,35.889h21.516
	l23.234-42.981l6.025-3.589l0.062-0.037l0.192-0.142l5.744-4.208l-27.546,50.958h16.96l17.732-57l2.218-1.985l0.009-0.009
	l0.196-0.208l6.469-6.952l0.111-0.122l0.094-0.12l1.386-1.819l-21.108,68.215h20.341l11.522-84.5l3.325-6.668l0.064-0.136
	l0.073-0.193l3.29-8.915l0.05-0.142l0.038-0.138l2.54-9.394l0.023-0.083l0.038-0.249l1.564-9.702l0.05-0.302l0.003-0.054
	l0.504-10.055l0.006-0.161l-0.006-0.158l-0.504-9.904l-0.003-0.032l-0.05-0.311L300.88,155.862L300.88,155.862z M500.492,304.378
	H17.637c9.262,49.655,33.458,94.055,67.755,128.353c44.445,44.443,105.848,71.936,173.672,71.936
	c67.821,0,129.227-27.492,173.67-71.936C467.032,398.433,491.231,354.034,500.492,304.378L500.492,304.378z M373.806,297.582
	l-69.214-121.51l35.933,121.51H373.806L373.806,297.582z M333.456,297.582l-33.378-112.822l8.247,112.822H333.456L333.456,297.582z
	 M301.49,297.582l-5.613-77.619l-10.585,77.619H301.49L301.49,297.582z"/>
</svg>
